<svg width="19" height="19" viewBox="0 0 19 19" fill="none" xmlns="http://www.w3.org/2000/svg">
<path d="M0.5 18.4999V10.8635H8.13636V18.4999H0.5Z" stroke="#190B2D"/>
<path d="M0.5 8.13636V0.5H8.13636V8.13636H0.5Z" stroke="#190B2D"/>
<path d="M10.8635 8.13636V0.5H18.4999V8.13636H10.8635Z" stroke="#190B2D"/>
<path d="M18.5681 14.2499H15.1135V10.7953C15.1135 10.6808 15.068 10.571 14.987 10.49C14.9061 10.409 14.7962 10.3635 14.6817 10.3635C14.5672 10.3635 14.4573 10.409 14.3764 10.49C14.2954 10.571 14.2499 10.6808 14.2499 10.7953V14.2499H10.7953C10.6808 14.2499 10.571 14.2954 10.49 14.3764C10.409 14.4573 10.3635 14.5672 10.3635 14.6817C10.3635 14.7962 10.409 14.9061 10.49 14.987C10.571 15.068 10.6808 15.1135 10.7953 15.1135H14.2499V18.5681C14.2499 18.6826 14.2954 18.7924 14.3764 18.8734C14.4573 18.9544 14.5672 18.9999 14.6817 18.9999C14.7962 18.9999 14.9061 18.9544 14.987 18.8734C15.068 18.7924 15.1135 18.6826 15.1135 18.5681V15.1135H18.5681C18.6826 15.1135 18.7924 15.068 18.8734 14.987C18.9544 14.9061 18.9999 14.7962 18.9999 14.6817C18.9999 14.5672 18.9544 14.4573 18.8734 14.3764C18.7924 14.2954 18.6826 14.2499 18.5681 14.2499Z" fill="#190B2D"/>
</svg>
