<svg width="47" height="47" viewBox="0 0 47 47" fill="none" xmlns="http://www.w3.org/2000/svg">
<path d="M20.375 25H1.62498C1.34871 25 1.08376 25.1097 0.88841 25.3051C0.69306 25.5004 0.583313 25.7654 0.583313 26.0417V44.7917C0.583313 45.0679 0.69306 45.3329 0.88841 45.5282C1.08376 45.7236 1.34871 45.8333 1.62498 45.8333H20.375C20.6512 45.8333 20.9162 45.7236 21.1116 45.5282C21.3069 45.3329 21.4166 45.0679 21.4166 44.7917V26.0417C21.4166 25.7654 21.3069 25.5004 21.1116 25.3051C20.9162 25.1097 20.6512 25 20.375 25Z" fill="white"/>
<path d="M20.375 0H1.62498C1.34871 0 1.08376 0.109747 0.88841 0.305097C0.69306 0.500447 0.583313 0.7654 0.583313 1.04167V19.7917C0.583313 20.0679 0.69306 20.3329 0.88841 20.5282C1.08376 20.7236 1.34871 20.8333 1.62498 20.8333H20.375C20.6512 20.8333 20.9162 20.7236 21.1116 20.5282C21.3069 20.3329 21.4166 20.0679 21.4166 19.7917V1.04167C21.4166 0.7654 21.3069 0.500447 21.1116 0.305097C20.9162 0.109747 20.6512 0 20.375 0Z" fill="white"/>
<path d="M45.375 0H26.625C26.3487 0 26.0838 0.109747 25.8884 0.305097C25.6931 0.500447 25.5833 0.7654 25.5833 1.04167V19.7917C25.5833 20.0679 25.6931 20.3329 25.8884 20.5282C26.0838 20.7236 26.3487 20.8333 26.625 20.8333H45.375C45.6513 20.8333 45.9162 20.7236 46.1116 20.5282C46.3069 20.3329 46.4167 20.0679 46.4167 19.7917V1.04167C46.4167 0.7654 46.3069 0.500447 46.1116 0.305097C45.9162 0.109747 45.6513 0 45.375 0Z" fill="white"/>
<path d="M45.375 34.175H37.2416V26.0417C37.2416 25.7124 37.1108 25.3965 36.878 25.1637C36.6451 24.9308 36.3293 24.8 36 24.8C35.6707 24.8 35.3548 24.9308 35.122 25.1637C34.8891 25.3965 34.7583 25.7124 34.7583 26.0417V34.175H26.625C26.2957 34.175 25.9798 34.3058 25.747 34.5387C25.5141 34.7715 25.3833 35.0874 25.3833 35.4167C25.3833 35.746 25.5141 36.0618 25.747 36.2947C25.9798 36.5275 26.2957 36.6583 26.625 36.6583H34.7583V44.7917C34.7583 45.121 34.8891 45.4368 35.122 45.6697C35.3548 45.9025 35.6707 46.0333 36 46.0333C36.3293 46.0333 36.6451 45.9025 36.878 45.6697C37.1108 45.4368 37.2416 45.121 37.2416 44.7917V36.6583H45.375C45.7043 36.6583 46.0201 36.5275 46.253 36.2947C46.4858 36.0618 46.6167 35.746 46.6167 35.4167C46.6167 35.0874 46.4858 34.7715 46.253 34.5387C46.0201 34.3058 45.7043 34.175 45.375 34.175Z" fill="#914EFF" stroke="#914EFF" stroke-width="0.4"/>
</svg>
