<svg width="50" height="50" viewBox="0 0 50 50" fill="none" xmlns="http://www.w3.org/2000/svg">
<g clip-path="url(#clip0_34_101)">
<path d="M13.0208 40.625C9.68541 40.625 6.71875 38.4896 5.64166 35.3104L5.56875 35.0708C5.31458 34.2292 5.20833 33.5208 5.20833 32.8125V18.6083L0.154161 35.4792C-0.495839 37.9604 0.985411 40.5333 3.47083 41.2188L35.6854 49.8459C36.0875 49.95 36.4896 50 36.8854 50C38.9604 50 40.8563 48.6229 41.3875 46.5938L43.2646 40.625H13.0208Z" fill="#914EFF"/>
<path d="M18.75 18.75C21.048 18.75 22.9167 16.8813 22.9167 14.5834C22.9167 12.2854 21.048 10.4167 18.75 10.4167C16.4521 10.4167 14.5834 12.2854 14.5834 14.5834C14.5834 16.8813 16.4521 18.75 18.75 18.75Z" fill="white"/>
<path d="M44.7917 4.16669H13.5417C10.6709 4.16669 8.33337 6.50419 8.33337 9.37502V32.2917C8.33337 35.1625 10.6709 37.5 13.5417 37.5H44.7917C47.6626 37.5 50.0001 35.1625 50.0001 32.2917V9.37502C50.0001 6.50419 47.6626 4.16669 44.7917 4.16669ZM13.5417 8.33335H44.7917C45.3667 8.33335 45.8334 8.80002 45.8334 9.37502V24.1646L39.2521 16.4854C38.5542 15.6667 37.5438 15.2292 36.4584 15.2042C35.3792 15.2104 34.3667 15.6896 33.6751 16.5188L25.9375 25.8063L23.4167 23.2917C21.9917 21.8667 19.673 21.8667 18.25 23.2917L12.5 29.0396V9.37502C12.5 8.80002 12.9667 8.33335 13.5417 8.33335Z" fill="white"/>
</g>
<defs>
<clipPath id="clip0_34_101">
<rect width="50" height="50" fill="white"/>
</clipPath>
</defs>
</svg>
