<svg width="16" height="16" viewBox="0 0 16 16" fill="none" xmlns="http://www.w3.org/2000/svg">
<path d="M8 15.1172C7.77222 15.1172 7.55261 15.0347 7.38147 14.8848C6.73511 14.3196 6.11194 13.7885 5.56213 13.32L5.55933 13.3175C3.94739 11.9439 2.55542 10.7576 1.58691 9.58901C0.504272 8.28261 0 7.04396 0 5.6908C0 4.37611 0.450806 3.16321 1.26929 2.27539C2.09753 1.37708 3.23401 0.882324 4.46973 0.882324C5.39331 0.882324 6.23914 1.17432 6.98364 1.75012C7.35938 2.04077 7.69995 2.39649 8 2.81141C8.30017 2.39649 8.64062 2.04077 9.01648 1.75012C9.76099 1.17432 10.6068 0.882324 11.5304 0.882324C12.766 0.882324 13.9026 1.37708 14.7308 2.27539C15.5493 3.16321 16 4.37611 16 5.6908C16 7.04396 15.4958 8.28261 14.4132 9.58888C13.4447 10.7576 12.0529 11.9437 10.4412 13.3173C9.89038 13.7865 9.26624 14.3185 8.61841 14.885C8.44739 15.0347 8.22766 15.1172 8 15.1172ZM4.46973 1.81958C3.4989 1.81958 2.60706 2.20703 1.95825 2.91065C1.2998 3.62488 0.937134 4.61219 0.937134 5.6908C0.937134 6.82887 1.36011 7.84669 2.30847 8.99098C3.2251 10.0971 4.5885 11.2589 6.16711 12.6043L6.17004 12.6067C6.72192 13.077 7.34753 13.6103 7.99866 14.1796C8.65369 13.6092 9.28027 13.0751 9.83325 12.604C11.4117 11.2587 12.775 10.0971 13.6917 8.99098C14.6399 7.84669 15.0629 6.82887 15.0629 5.6908C15.0629 4.61219 14.7002 3.62488 14.0417 2.91065C13.3931 2.20703 12.5011 1.81958 11.5304 1.81958C10.8192 1.81958 10.1663 2.04566 9.58972 2.49146C9.07593 2.88892 8.71802 3.39136 8.50818 3.74293C8.40027 3.92371 8.21033 4.03162 8 4.03162C7.78967 4.03162 7.59973 3.92371 7.49182 3.74293C7.2821 3.39136 6.92419 2.88892 6.41028 2.49146C5.83374 2.04566 5.18079 1.81958 4.46973 1.81958Z" fill="#4E4E4E"/>
</svg>
