<svg width="16" height="17" viewBox="0 0 16 17" fill="none" xmlns="http://www.w3.org/2000/svg">
<path d="M15.7222 14.8827L12.6465 11.8071C13.5786 10.5868 14.0899 9.10671 14.0901 7.54488C14.0901 5.66272 13.357 3.89308 12.0259 2.56221C10.695 1.23134 8.92563 0.498291 7.04323 0.498291C5.16107 0.498291 3.39143 1.23134 2.06056 2.56221C-0.686854 5.30985 -0.686854 9.78036 2.06056 12.5275C3.39143 13.8587 5.16107 14.5917 7.04323 14.5917C8.60506 14.5915 10.0852 14.0803 11.3054 13.1481L14.3811 16.2238C14.5661 16.409 14.809 16.5016 15.0516 16.5016C15.2943 16.5016 15.5372 16.409 15.7222 16.2238C16.0926 15.8536 16.0926 15.253 15.7222 14.8827ZM3.40162 11.1865C1.39374 9.1786 1.39397 5.91139 3.40162 3.90327C4.37431 2.93082 5.66767 2.39504 7.04323 2.39504C8.41902 2.39504 9.71216 2.93082 10.6848 3.90327C11.6575 4.87595 12.1933 6.16932 12.1933 7.54488C12.1933 8.92067 11.6575 10.2138 10.6848 11.1865C9.71216 12.1592 8.41902 12.6949 7.04323 12.6949C5.66767 12.6949 4.37431 12.1592 3.40162 11.1865Z" fill="#4E4E4E"/>
</svg>
