<svg width="17" height="17" viewBox="0 0 17 17" fill="none" xmlns="http://www.w3.org/2000/svg">
<path d="M16.4335 10.0159L14.9232 8.83492C14.9424 8.6528 14.9588 8.43991 14.9588 8.21466C14.9588 7.98942 14.9431 7.77652 14.9232 7.59441L16.4349 6.41278C16.7156 6.19096 16.7922 5.7973 16.6135 5.46939L15.043 2.75214C14.8753 2.44544 14.5077 2.28797 14.1346 2.42558L12.3525 3.14099C12.0109 2.89453 11.6528 2.68642 11.2825 2.52005L11.0114 0.629853C10.9668 0.271106 10.6547 0 10.2857 0H7.13647C6.76746 0 6.45598 0.271106 6.41214 0.624366L6.14036 2.52143C5.78161 2.68301 5.42906 2.8884 5.07237 3.14237L3.28553 2.4249C2.95072 2.29551 2.55023 2.44063 2.38387 2.74598L0.811335 5.46663C0.625816 5.7802 0.702482 6.18753 0.989345 6.41483L2.49959 7.59579C2.47562 7.82649 2.464 8.02709 2.464 8.21537C2.464 8.40365 2.47565 8.60422 2.49959 8.83563L0.987965 10.0173C0.707264 10.2397 0.631272 10.6334 0.809955 10.9606L2.38046 13.6779C2.54821 13.9839 2.91241 14.1427 3.28893 14.0044L5.07099 13.289C5.41192 13.5348 5.76997 13.7429 6.14036 13.9099L6.41147 15.7995C6.45595 16.1596 6.76746 16.4307 7.13715 16.4307H10.2863C10.6554 16.4307 10.9675 16.1596 11.0114 15.8063L11.2831 13.9099C11.6419 13.7477 11.9938 13.543 12.3511 13.2883L14.138 14.0058C14.2242 14.0393 14.3139 14.0564 14.4063 14.0564C14.672 14.0564 14.9164 13.9113 15.0396 13.6854L16.6169 10.9538C16.7922 10.6334 16.7155 10.2397 16.4335 10.0159ZM8.71106 10.9538C7.20081 10.9538 5.97262 9.72558 5.97262 8.21534C5.97262 6.7051 7.20081 5.4769 8.71106 5.4769C10.2213 5.4769 11.4495 6.7051 11.4495 8.21534C11.4495 9.72558 10.2213 10.9538 8.71106 10.9538Z" fill="black"/>
</svg>
