<svg width="16" height="15" viewBox="0 0 16 15" fill="none" xmlns="http://www.w3.org/2000/svg">
<g clip-path="url(#clip0_100_1961)">
<path fill-rule="evenodd" clip-rule="evenodd" d="M2.74857 11.2806C2.80021 11.2238 2.86309 11.1785 2.93324 11.1474C3.00332 11.1164 3.07923 11.1003 3.1559 11.1003L15.7242 11.1105C15.7778 11.1107 15.8301 11.1263 15.8749 11.1556C15.9197 11.1848 15.955 11.2265 15.9766 11.2755C15.9982 11.3245 16.005 11.3788 15.9964 11.4316C15.9878 11.4844 15.9639 11.5335 15.9278 11.5731L13.2514 14.52C13.1998 14.5768 13.1368 14.6222 13.0666 14.6532C12.9965 14.6844 12.9206 14.7004 12.8438 14.7004L0.275794 14.6901C0.222272 14.69 0.169929 14.6744 0.12513 14.6451C0.0803296 14.6158 0.0450002 14.574 0.0234336 14.5251C0.00186701 14.4761 -0.00501806 14.4219 0.00362916 14.3691C0.0122695 14.3163 0.0360718 14.2672 0.0721281 14.2276L2.74857 11.2806ZM15.9278 8.82732C15.9639 8.86692 15.9878 8.91612 15.9964 8.96892C16.005 9.02172 15.9982 9.07596 15.9766 9.12492C15.955 9.17388 15.9197 9.21556 15.8749 9.24484C15.8301 9.27412 15.7778 9.28972 15.7242 9.28988L3.15624 9.3002C3.07951 9.3002 3.0036 9.28412 2.93338 9.25308C2.86316 9.22196 2.80021 9.1766 2.74857 9.1198L0.0721281 6.17113C0.0360718 6.13156 0.0122695 6.0824 0.00362916 6.0296C-0.00501806 5.97679 0.00186701 5.92255 0.0234336 5.87359C0.0450002 5.82463 0.0803296 5.78293 0.12513 5.75365C0.169929 5.72437 0.222272 5.70873 0.275794 5.7086L12.8441 5.69831C12.9208 5.69838 12.9966 5.71443 13.0668 5.74549C13.137 5.77656 13.1998 5.82188 13.2514 5.87866L15.9278 8.82732ZM2.74857 0.480155C2.80021 0.423396 2.86309 0.378034 2.93324 0.346977C3.00332 0.315926 3.07923 0.299853 3.1559 0.299805L15.7242 0.310091C15.7778 0.310201 15.8301 0.325849 15.8749 0.355137C15.9197 0.384425 15.955 0.426091 15.9766 0.475073C15.9982 0.524063 16.005 0.578257 15.9964 0.631073C15.9878 0.683889 15.9639 0.733057 15.9278 0.772624L13.2514 3.7196C13.1998 3.77638 13.1368 3.82178 13.0666 3.85284C12.9965 3.88391 12.9206 3.89995 12.8438 3.89995L0.275794 3.88967C0.222272 3.88953 0.169929 3.87389 0.12513 3.84461C0.0803296 3.81533 0.0450002 3.77364 0.0234336 3.72468C0.00186701 3.67572 -0.00501806 3.62148 0.00362916 3.56867C0.0122695 3.51587 0.0360718 3.4667 0.0721281 3.42713L2.74857 0.480155Z" fill="url(#paint0_linear_100_1961)"/>
</g>
<defs>
<linearGradient id="paint0_linear_100_1961" x1="0.485631" y1="15.0144" x2="15.5143" y2="-0.014279" gradientUnits="userSpaceOnUse">
<stop stop-color="#9945FF"/>
<stop offset="0.2" stop-color="#7962E7"/>
<stop offset="1" stop-color="#00D18C"/>
</linearGradient>
<clipPath id="clip0_100_1961">
<rect width="16" height="14.4" fill="white" transform="translate(0 0.299805)"/>
</clipPath>
</defs>
</svg>
