<svg width="24" height="24" viewBox="0 0 24 24" fill="none" xmlns="http://www.w3.org/2000/svg">
<path d="M21.255 13.9949C21.5929 13.7705 21.8788 13.4763 22.0935 13.1322C22.3082 12.7881 22.4468 12.4021 22.5 11.9999C22.4468 11.5978 22.3082 11.2117 22.0935 10.8676C21.8788 10.5235 21.5929 10.2294 21.255 10.0049C20.9853 9.78292 20.7525 9.51967 20.565 9.22494C20.5256 8.85164 20.5613 8.47422 20.67 8.11494C20.8013 7.74093 20.8531 7.34363 20.8222 6.94845C20.7912 6.55327 20.678 6.1689 20.49 5.81994C20.2124 5.53406 19.8783 5.30907 19.509 5.15929C19.1397 5.00952 18.7433 4.93822 18.345 4.94994C17.9849 4.93385 17.6301 4.8578 17.295 4.72494C17.059 4.45105 16.8759 4.1357 16.755 3.79494C16.6428 3.40732 16.4498 3.04786 16.1887 2.7402C15.9275 2.43254 15.6042 2.18366 15.24 2.00994C14.8551 1.94114 14.4601 1.95363 14.0804 2.04663C13.7006 2.13963 13.3445 2.31108 13.035 2.54994C12.7212 2.76347 12.3701 2.91612 12 2.99994C11.6299 2.91612 11.2788 2.76347 10.965 2.54994C10.6559 2.31031 10.2998 2.13839 9.91995 2.04536C9.54006 1.95232 9.14485 1.94026 8.76 2.00994C8.39577 2.18366 8.07246 2.43254 7.81134 2.7402C7.55022 3.04786 7.3572 3.40732 7.245 3.79494C7.12414 4.1357 6.94103 4.45105 6.705 4.72494C6.36994 4.8578 6.01508 4.93385 5.655 4.94994C5.25667 4.93822 4.86026 5.00952 4.49098 5.15929C4.1217 5.30907 3.78762 5.53406 3.51 5.81994C3.32197 6.1689 3.20884 6.55327 3.17785 6.94845C3.14685 7.34363 3.19867 7.74093 3.33 8.11494C3.43874 8.47422 3.47444 8.85164 3.435 9.22494C3.24753 9.51967 3.01466 9.78292 2.745 10.0049C2.40714 10.2294 2.12124 10.5235 1.90649 10.8676C1.69175 11.2117 1.55315 11.5978 1.5 11.9999C1.55315 12.4021 1.69175 12.7881 1.90649 13.1322C2.12124 13.4763 2.40714 13.7705 2.745 13.9949C3.01466 14.217 3.24753 14.4802 3.435 14.7749C3.47444 15.1482 3.43874 15.5257 3.33 15.8849C3.19867 16.2589 3.14685 16.6562 3.17785 17.0514C3.20884 17.4466 3.32197 17.831 3.51 18.1799C3.78762 18.4658 4.1217 18.6908 4.49098 18.8406C4.86026 18.9904 5.25667 19.0617 5.655 19.0499C6.01508 19.066 6.36994 19.1421 6.705 19.2749C6.94103 19.5488 7.12414 19.8642 7.245 20.2049C7.3572 20.5926 7.55022 20.952 7.81134 21.2597C8.07246 21.5673 8.39577 21.8162 8.76 21.9899C9.14487 22.0587 9.53988 22.0462 9.91964 21.9532C10.2994 21.8602 10.6555 21.6888 10.965 21.4499C11.2788 21.2364 11.6299 21.0838 12 20.9999C12.3701 21.0838 12.7212 21.2364 13.035 21.4499C13.5469 21.7901 14.1337 22.0011 14.745 22.0649C14.9131 22.0695 15.0807 22.0441 15.24 21.9899C15.6042 21.8162 15.9275 21.5673 16.1887 21.2597C16.4498 20.952 16.6428 20.5926 16.755 20.2049C16.8759 19.8642 17.059 19.5488 17.295 19.2749C17.6301 19.1421 17.9849 19.066 18.345 19.0499C18.7433 19.0617 19.1397 18.9904 19.509 18.8406C19.8783 18.6908 20.2124 18.4658 20.49 18.1799C20.678 17.831 20.7912 17.4466 20.8222 17.0514C20.8531 16.6562 20.8013 16.2589 20.67 15.8849C20.5613 15.5257 20.5256 15.1482 20.565 14.7749C20.7525 14.4802 20.9853 14.217 21.255 13.9949ZM15.525 10.5299L11.535 14.5349C11.3905 14.6699 11.2002 14.745 11.0025 14.745C10.8048 14.745 10.6145 14.6699 10.47 14.5349L8.475 12.5249C8.33808 12.3852 8.26183 12.1971 8.26281 12.0015C8.2638 11.8059 8.34195 11.6185 8.48028 11.4802C8.6186 11.3419 8.80593 11.2637 9.00155 11.2628C9.19718 11.2618 9.38528 11.338 9.525 11.4749L10.995 12.9449L14.475 9.46494C14.6154 9.32791 14.8038 9.25121 15 9.25121C15.1962 9.25121 15.3846 9.32791 15.525 9.46494C15.5962 9.53415 15.6528 9.61694 15.6914 9.7084C15.7301 9.79986 15.75 9.89815 15.75 9.99744C15.75 10.0967 15.7301 10.195 15.6914 10.2865C15.6528 10.3779 15.5962 10.4607 15.525 10.5299Z" fill="#1061FF"/>
</svg>
