<svg width="51" height="50" viewBox="0 0 51 50" fill="none" xmlns="http://www.w3.org/2000/svg">
<g clip-path="url(#clip0_34_76)">
<circle cx="39.5" cy="31.5" r="3.5" fill="white"/>
<path d="M47.5902 40.9092H39.6358C34.6232 40.9092 30.545 36.831 30.545 31.8184C30.545 26.8059 34.6232 22.7277 39.6358 22.7277H47.5902C48.2183 22.7277 48.7266 22.2194 48.7266 21.5913V18.1823C48.7266 15.7994 46.8783 13.8615 44.543 13.6735L38.0168 2.27457C37.412 1.22032 36.4354 0.466818 35.2669 0.153932C34.1039 -0.156823 32.8877 0.00638503 31.8468 0.612235L9.47465 13.6369H5.54542C3.0386 13.6369 1 15.6754 1 18.1823V45.4546C1 47.9614 3.0385 50 5.54542 50H44.1812C46.688 50 48.7266 47.9615 48.7266 45.4546V42.0455C48.7266 41.4174 48.2183 40.9092 47.5902 40.9092ZM39.4261 9.31209L41.9021 13.6369H31.9977L39.4261 9.31209ZM13.9916 13.6369L32.9908 2.57637C33.5046 2.27563 34.1049 2.19573 34.6787 2.34893C35.2591 2.50425 35.743 2.87935 36.0437 3.40423L36.0461 3.40839L18.4778 13.6369H13.9916Z" fill="white"/>
<path d="M47.0905 25.0004H39.1361C35.3763 25.0004 32.318 28.0587 32.318 31.8184C32.318 35.5782 35.3763 38.6365 39.1361 38.6365H47.0905C48.9704 38.6365 50.4996 37.1073 50.4996 35.2275V28.4094C50.4996 26.5295 48.9704 25.0004 47.0905 25.0004ZM39.1361 34.0911C37.8832 34.0911 36.8634 33.0713 36.8634 31.8184C36.8634 30.5656 37.8832 29.5458 39.1361 29.5458C40.3889 29.5458 41.4087 30.5656 41.4087 31.8184C41.4088 33.0713 40.389 34.0911 39.1361 34.0911Z" fill="#914EFF"/>
</g>
<defs>
<clipPath id="clip0_34_76">
<rect width="50" height="50" fill="white" transform="translate(0.5)"/>
</clipPath>
</defs>
</svg>
